<?xml version="1.0" standalone="no"?>
<!DOCTYPE svg PUBLIC "-//W3C//DTD SVG 1.1//EN" "http://www.w3.org/Graphics/SVG/1.1/DTD/svg11.dtd" >
<svg xmlns="http://www.w3.org/2000/svg" xmlns:xlink="http://www.w3.org/1999/xlink" version="1.1">
<metadata>
Created by FontForge 20160405 at Mon Aug 28 10:36:11 2017
 By www-data
Strictly seven-segment (plus point) calculator display face, fixed-width and free.  (c) Cedric Knight 2014.  Licensed under SIL Open Font Licence v1.1.  Reserved name: Segment7.
</metadata>
<defs>
<font id="Segment7Standard" horiz-adv-x="585" >
  <font-face 
    font-family="Segment7"
    font-weight="600"
    font-style="italic"
    font-stretch="normal"
    units-per-em="1000"
    panose-1="2 0 5 9 0 0 0 0 0 0"
    ascent="800"
    descent="-200"
    x-height="394"
    cap-height="762"
    bbox="0 -200 977 800"
    underline-thickness="0"
    underline-position="0"
    slope="-3"
    stemh="95"
    stemv="977"
    unicode-range="U+0001-00FF"
  />
<missing-glyph 
d="M50 0v533h485v-533h-485zM100 50h385v433h-385v-433z" />
    <glyph glyph-name=".notdef" 
d="M50 0v533h485v-533h-485zM100 50h385v433h-385v-433z" />
    <glyph glyph-name="uni0000" 
d="M0 -200v1000h977v-1000h-977z" />
    <glyph glyph-name="uni0000" 
d="M0 -200v1000h977v-1000h-977z" />
    <glyph glyph-name="uni0001" 
 />
    <glyph glyph-name="uni0002" 
 />
    <glyph glyph-name="uni0003" 
 />
    <glyph glyph-name="uni0004" 
 />
    <glyph glyph-name="uni0005" 
 />
    <glyph glyph-name="uni0006" 
 />
    <glyph glyph-name="uni0007" 
 />
    <glyph glyph-name="uni0008" 
 />
    <glyph glyph-name="uni0009" unicode="&#x9;" 
 />
    <glyph glyph-name="uni000A" unicode="&#xa;" 
 />
    <glyph glyph-name="uni000B" 
 />
    <glyph glyph-name="uni000C" 
 />
    <glyph glyph-name="uni000D" unicode="&#xd;" 
 />
    <glyph glyph-name="uni000E" 
 />
    <glyph glyph-name="uni000F" 
 />
    <glyph glyph-name="uni0010" 
 />
    <glyph glyph-name="uni0011" 
 />
    <glyph glyph-name="uni0012" 
 />
    <glyph glyph-name="uni0013" 
 />
    <glyph glyph-name="uni0014" 
 />
    <glyph glyph-name="uni0015" 
 />
    <glyph glyph-name="uni0016" 
 />
    <glyph glyph-name="uni0017" 
 />
    <glyph glyph-name="uni0018" 
 />
    <glyph glyph-name="uni0019" 
 />
    <glyph glyph-name="uni001A" 
 />
    <glyph glyph-name="uni001B" 
 />
    <glyph glyph-name="uni001C" 
 />
    <glyph glyph-name="uni001D" 
 />
    <glyph glyph-name="uni001E" 
 />
    <glyph glyph-name="uni001F" 
 />
    <glyph glyph-name="space" unicode=" " 
 />
    <glyph glyph-name="exclam" unicode="!" 
d="M525 762c2 -5 5 -11 5 -16c-5 -99 -11 -194 -16 -293l-35 -37l-56 42l12 214zM563 79c25 0 45 -21 45 -49c0 -30 -21 -51 -49 -51c-25 0 -46 21 -46 49c0 30 22 51 50 51z" />
    <glyph glyph-name="quotedbl" unicode="&#x22;" 
d="M82 717l86 -56l-12 -198l-79 -47l-11 24zM525 762c2 -5 5 -11 5 -16c-5 -99 -11 -194 -16 -293l-35 -37l-56 42l12 214z" />
    <glyph glyph-name="numbersign" unicode="#" 
d="M139 92h261c21 -26 44 -56 65 -82c3 -3 5 -5 5 -7c0 -3 -3 -5 -10 -5h-172h-142h-71c-7 9 -14 17 -21 26c-3 3 -7 6 -7 11v1zM172 450h233l65 -51l-64 -44h-248c-21 19 -45 34 -66 51zM525 762c2 -5 5 -11 5 -16c-5 -99 -11 -194 -16 -293l-35 -37l-56 42l12 214z" />
    <glyph glyph-name="dollar" unicode="$" 
d="M139 92h261c21 -26 44 -56 65 -82c3 -3 5 -5 5 -7c0 -3 -3 -5 -10 -5h-172h-142h-71c-7 9 -14 17 -21 26c-3 3 -7 6 -7 11v1zM82 717l86 -56l-12 -198l-79 -47l-11 24zM155 780l359 -5l-91 -90h-255l-80 50zM475 388l34 -38l-19 -288l-18 -26l-66 79l12 227z" />
    <glyph glyph-name="percent" unicode="%" 
d="M139 92h261c21 -26 44 -56 65 -82c3 -3 5 -5 5 -7c0 -3 -3 -5 -10 -5h-172h-142h-71c-7 9 -14 17 -21 26c-3 3 -7 6 -7 11v1zM82 717l86 -56l-12 -198l-79 -47l-11 24zM155 780l359 -5l-91 -90h-255l-80 50zM475 388l34 -38l-19 -288l-18 -26l-66 79l12 227z" />
    <glyph glyph-name="ampersand" unicode="&#x26;" 
d="M172 450h233l65 -51l-64 -44h-248c-21 19 -45 34 -66 51zM475 388l34 -38l-19 -288l-18 -26l-66 79l12 227zM525 762c2 -5 5 -11 5 -16c-5 -99 -11 -194 -16 -293l-35 -37l-56 42l12 214z" />
    <glyph glyph-name="quotesingle" unicode="'" 
d="M525 762c2 -5 5 -11 5 -16c-5 -99 -11 -194 -16 -293l-35 -37l-56 42l12 214z" />
    <glyph glyph-name="parenleft" unicode="(" 
d="M139 92h261c21 -26 44 -56 65 -82c3 -3 5 -5 5 -7c0 -3 -3 -5 -10 -5h-172h-142h-71c-7 9 -14 17 -21 26c-3 3 -7 6 -7 11v1zM77 394l74 -52l-12 -233l-92 -50l16 304c3 10 11 21 14 31zM82 717l86 -56l-12 -198l-79 -47l-11 24zM155 780l359 -5l-91 -90h-255l-80 50z
" />
    <glyph glyph-name="parenright" unicode=")" 
d="M139 92h261c21 -26 44 -56 65 -82c3 -3 5 -5 5 -7c0 -3 -3 -5 -10 -5h-172h-142h-71c-7 9 -14 17 -21 26c-3 3 -7 6 -7 11v1zM155 780l359 -5l-91 -90h-255l-80 50zM475 388l34 -38l-19 -288l-18 -26l-66 79l12 227zM525 762c2 -5 5 -11 5 -16c-5 -99 -11 -194 -16 -293
l-35 -37l-56 42l12 214z" />
    <glyph glyph-name="asterisk" unicode="*" 
d="M139 92h261c21 -26 44 -56 65 -82c3 -3 5 -5 5 -7c0 -3 -3 -5 -10 -5h-172h-142h-71c-7 9 -14 17 -21 26c-3 3 -7 6 -7 11v1zM172 450h233l65 -51l-64 -44h-248c-21 19 -45 34 -66 51zM525 762c2 -5 5 -11 5 -16c-5 -99 -11 -194 -16 -293l-35 -37l-56 42l12 214z" />
    <glyph glyph-name="plus" unicode="+" 
d="M172 450h233l65 -51l-64 -44h-248c-21 19 -45 34 -66 51zM475 388l34 -38l-19 -288l-18 -26l-66 79l12 227zM525 762c2 -5 5 -11 5 -16c-5 -99 -11 -194 -16 -293l-35 -37l-56 42l12 214z" />
    <glyph glyph-name="comma" unicode="," 
d="M139 92h261c21 -26 44 -56 65 -82c3 -3 5 -5 5 -7c0 -3 -3 -5 -10 -5h-172h-142h-71c-7 9 -14 17 -21 26c-3 3 -7 6 -7 11v1zM475 388l34 -38l-19 -288l-18 -26l-66 79l12 227z" />
    <glyph glyph-name="hyphen" unicode="-" 
d="M172 450h233l65 -51l-64 -44h-248c-21 19 -45 34 -66 51z" />
    <glyph glyph-name="period" unicode="." 
d="M563 79c25 0 45 -21 45 -49c0 -30 -21 -51 -49 -51c-25 0 -46 21 -46 49c0 30 22 51 50 51z" />
    <glyph glyph-name="slash" unicode="/" 
d="M77 394l74 -52l-12 -233l-92 -50l16 304c3 10 11 21 14 31zM172 450h233l65 -51l-64 -44h-248c-21 19 -45 34 -66 51zM525 762c2 -5 5 -11 5 -16c-5 -99 -11 -194 -16 -293l-35 -37l-56 42l12 214z" />
    <glyph glyph-name="zero" unicode="0" 
d="M139 92h261c21 -26 44 -56 65 -82c3 -3 5 -5 5 -7c0 -3 -3 -5 -10 -5h-172h-142h-71c-7 9 -14 17 -21 26c-3 3 -7 6 -7 11v1zM77 394l74 -52l-12 -233l-92 -50l16 304c3 10 11 21 14 31zM82 717l86 -56l-12 -198l-79 -47l-11 24zM155 780l359 -5l-91 -90h-255l-80 50z
M475 388l34 -38l-19 -288l-18 -26l-66 79l12 227zM525 762c2 -5 5 -11 5 -16c-5 -99 -11 -194 -16 -293l-35 -37l-56 42l12 214z" />
    <glyph glyph-name="one" unicode="1" 
d="M475 388l34 -38l-19 -288l-18 -26l-66 79l12 227zM525 762c2 -5 5 -11 5 -16c-5 -99 -11 -194 -16 -293l-35 -37l-56 42l12 214z" />
    <glyph glyph-name="two" unicode="2" 
d="M139 92h261c21 -26 44 -56 65 -82c3 -3 5 -5 5 -7c0 -3 -3 -5 -10 -5h-172h-142h-71c-7 9 -14 17 -21 26c-3 3 -7 6 -7 11v1zM77 394l74 -52l-12 -233l-92 -50l16 304c3 10 11 21 14 31zM155 780l359 -5l-91 -90h-255l-80 50zM172 450h233l65 -51l-64 -44h-248
c-21 19 -45 34 -66 51zM525 762c2 -5 5 -11 5 -16c-5 -99 -11 -194 -16 -293l-35 -37l-56 42l12 214z" />
    <glyph glyph-name="three" unicode="3" 
d="M139 92h261c21 -26 44 -56 65 -82c3 -3 5 -5 5 -7c0 -3 -3 -5 -10 -5h-172h-142h-71c-7 9 -14 17 -21 26c-3 3 -7 6 -7 11v1zM155 780l359 -5l-91 -90h-255l-80 50zM172 450h233l65 -51l-64 -44h-248c-21 19 -45 34 -66 51zM475 388l34 -38l-19 -288l-18 -26l-66 79
l12 227zM525 762c2 -5 5 -11 5 -16c-5 -99 -11 -194 -16 -293l-35 -37l-56 42l12 214z" />
    <glyph glyph-name="four" unicode="4" 
d="M82 717l86 -56l-12 -198l-79 -47l-11 24zM172 450h233l65 -51l-64 -44h-248c-21 19 -45 34 -66 51zM475 388l34 -38l-19 -288l-18 -26l-66 79l12 227zM525 762c2 -5 5 -11 5 -16c-5 -99 -11 -194 -16 -293l-35 -37l-56 42l12 214z" />
    <glyph glyph-name="five" unicode="5" 
d="M476 389l32 -38l-19 -289l-17 -26l-66 78l13 228zM171 450h233l66 -51l-64 -43h-248c-22 18 -44 33 -66 50zM155 779l358 -3l-90 -91h-254l-80 51zM82 717l86 -55l-11 -199l-80 -47l-10 25zM138 92h262c21 -27 45 -55 66 -82c3 -3 5 -5 5 -7c0 -3 -4 -5 -11 -5h-172h-141
h-72c-7 8 -14 17 -21 25c-3 4 -8 7 -8 12v2z" />
    <glyph glyph-name="six" unicode="6" 
d="M138 92h262c21 -27 45 -55 66 -82c3 -3 5 -5 5 -7c0 -3 -4 -5 -11 -5h-172h-141h-72c-7 8 -14 17 -21 25c-3 4 -8 7 -8 12v2zM82 717l86 -55l-11 -199l-80 -47l-10 25zM155 779l358 -3l-90 -91h-254l-80 51zM171 450h233l66 -51l-64 -43h-248c-22 18 -44 33 -66 50z
M476 389l32 -38l-19 -289l-17 -26l-66 78l13 228zM76 393l75 -51l-12 -233l-92 -51l16 305c4 10 9 20 13 30z" />
    <glyph glyph-name="seven" unicode="7" 
d="M155 780l359 -5l-91 -90h-255l-80 50zM475 388l34 -38l-19 -288l-18 -26l-66 79l12 227zM525 762c2 -5 5 -11 5 -16c-5 -99 -11 -194 -16 -293l-35 -37l-56 42l12 214z" />
    <glyph glyph-name="eight" unicode="8" 
d="M139 92h261c21 -26 44 -56 65 -82c3 -3 5 -5 5 -7c0 -3 -3 -5 -10 -5h-172h-142h-71c-7 9 -14 17 -21 26c-3 3 -7 6 -7 11v1zM77 394l74 -52l-12 -233l-92 -50l16 304c3 10 11 21 14 31zM82 717l86 -56l-12 -198l-79 -47l-11 24zM155 780l359 -5l-91 -90h-255l-80 50z
M172 450h233l65 -51l-64 -44h-248c-21 19 -45 34 -66 51zM475 388l34 -38l-19 -288l-18 -26l-66 79l12 227zM525 762c2 -5 5 -11 5 -16c-5 -99 -11 -194 -16 -293l-35 -37l-56 42l12 214z" />
    <glyph glyph-name="nine" unicode="9" 
d="M139 92h261c21 -26 44 -56 65 -82c3 -3 5 -5 5 -7c0 -3 -3 -5 -10 -5h-172h-142h-71c-7 9 -14 17 -21 26c-3 3 -7 6 -7 11v1zM82 717l86 -56l-12 -198l-79 -47l-11 24zM155 780l359 -5l-91 -90h-255l-80 50zM172 450h233l65 -51l-64 -44h-248c-21 19 -45 34 -66 51z
M475 388l34 -38l-19 -288l-18 -26l-66 79l12 227zM525 762c2 -5 5 -11 5 -16c-5 -99 -11 -194 -16 -293l-35 -37l-56 42l12 214z" />
    <glyph glyph-name="colon" unicode=":" 
d="M172 450h233l65 -51l-64 -44h-248c-21 19 -45 34 -66 51z" />
    <glyph glyph-name="semicolon" unicode=";" 
d="M525 762c2 -5 5 -11 5 -16c-5 -99 -11 -194 -16 -293l-35 -37l-56 42l12 214zM563 79c25 0 45 -21 45 -49c0 -30 -21 -51 -49 -51c-25 0 -46 21 -46 49c0 30 22 51 50 51z" />
    <glyph glyph-name="less" unicode="&#x3c;" 
d="M139 92h261c21 -26 44 -56 65 -82c3 -3 5 -5 5 -7c0 -3 -3 -5 -10 -5h-172h-142h-71c-7 9 -14 17 -21 26c-3 3 -7 6 -7 11v1zM77 394l74 -52l-12 -233l-92 -50l16 304c3 10 11 21 14 31zM172 450h233l65 -51l-64 -44h-248c-21 19 -45 34 -66 51z" />
    <glyph glyph-name="equal" unicode="=" 
d="M139 92h261c21 -26 44 -56 65 -82c3 -3 5 -5 5 -7c0 -3 -3 -5 -10 -5h-172h-142h-71c-7 9 -14 17 -21 26c-3 3 -7 6 -7 11v1zM172 450h233l65 -51l-64 -44h-248c-21 19 -45 34 -66 51z" />
    <glyph glyph-name="greater" unicode="&#x3e;" 
d="M139 92h261c21 -26 44 -56 65 -82c3 -3 5 -5 5 -7c0 -3 -3 -5 -10 -5h-172h-142h-71c-7 9 -14 17 -21 26c-3 3 -7 6 -7 11v1zM475 388l34 -38l-19 -288l-18 -26l-66 79l12 227z" />
    <glyph glyph-name="question" unicode="?" 
d="M77 394l74 -52l-12 -233l-92 -50l16 304c3 10 11 21 14 31zM155 780l359 -5l-91 -90h-255l-80 50zM172 450h233l65 -51l-64 -44h-248c-21 19 -45 34 -66 51zM525 762c2 -5 5 -11 5 -16c-5 -99 -11 -194 -16 -293l-35 -37l-56 42l12 214z" />
    <glyph glyph-name="at" unicode="@" 
d="M139 92h261c21 -26 44 -56 65 -82c3 -3 5 -5 5 -7c0 -3 -3 -5 -10 -5h-172h-142h-71c-7 9 -14 17 -21 26c-3 3 -7 6 -7 11v1zM77 394l74 -52l-12 -233l-92 -50l16 304c3 10 11 21 14 31zM155 780l359 -5l-91 -90h-255l-80 50zM172 450h233l65 -51l-64 -44h-248
c-21 19 -45 34 -66 51zM475 388l34 -38l-19 -288l-18 -26l-66 79l12 227zM525 762c2 -5 5 -11 5 -16c-5 -99 -11 -194 -16 -293l-35 -37l-56 42l12 214z" />
    <glyph glyph-name="A" unicode="A" 
d="M77 394l74 -52l-12 -233l-92 -50l16 304c3 10 11 21 14 31zM82 717l86 -56l-12 -198l-79 -47l-11 24zM155 780l359 -5l-91 -90h-255l-80 50zM172 450h233l65 -51l-64 -44h-248c-21 19 -45 34 -66 51zM475 388l34 -38l-19 -288l-18 -26l-66 79l12 227zM525 762
c2 -5 5 -11 5 -16c-5 -99 -11 -194 -16 -293l-35 -37l-56 42l12 214z" />
    <glyph glyph-name="B" unicode="B" 
d="M139 92h261c21 -26 44 -56 65 -82c3 -3 5 -5 5 -7c0 -3 -3 -5 -10 -5h-172h-142h-71c-7 9 -14 17 -21 26c-3 3 -7 6 -7 11v1zM77 394l74 -52l-12 -233l-92 -50l16 304c3 10 11 21 14 31zM82 717l86 -56l-12 -198l-79 -47l-11 24zM172 450h233l65 -51l-64 -44h-248
c-21 19 -45 34 -66 51zM475 388l34 -38l-19 -288l-18 -26l-66 79l12 227z" />
    <glyph glyph-name="C" unicode="C" 
d="M139 92h261c21 -26 44 -56 65 -82c3 -3 5 -5 5 -7c0 -3 -3 -5 -10 -5h-172h-142h-71c-7 9 -14 17 -21 26c-3 3 -7 6 -7 11v1zM77 394l74 -52l-12 -233l-92 -50l16 304c3 10 11 21 14 31zM82 717l86 -56l-12 -198l-79 -47l-11 24zM155 780l359 -5l-91 -90h-255l-80 50z
" />
    <glyph glyph-name="D" unicode="D" 
d="M139 92h261c21 -26 44 -56 65 -82c3 -3 5 -5 5 -7c0 -3 -3 -5 -10 -5h-172h-142h-71c-7 9 -14 17 -21 26c-3 3 -7 6 -7 11v1zM77 394l74 -52l-12 -233l-92 -50l16 304c3 10 11 21 14 31zM172 450h233l65 -51l-64 -44h-248c-21 19 -45 34 -66 51zM475 388l34 -38l-19 -288
l-18 -26l-66 79l12 227zM525 762c2 -5 5 -11 5 -16c-5 -99 -11 -194 -16 -293l-35 -37l-56 42l12 214z" />
    <glyph glyph-name="E" unicode="E" 
d="M139 92h261c21 -26 44 -56 65 -82c3 -3 5 -5 5 -7c0 -3 -3 -5 -10 -5h-172h-142h-71c-7 9 -14 17 -21 26c-3 3 -7 6 -7 11v1zM77 394l74 -52l-12 -233l-92 -50l16 304c3 10 11 21 14 31zM82 717l86 -56l-12 -198l-79 -47l-11 24zM155 780l359 -5l-91 -90h-255l-80 50z
M172 450h233l65 -51l-64 -44h-248c-21 19 -45 34 -66 51z" />
    <glyph glyph-name="F" unicode="F" 
d="M77 394l74 -52l-12 -233l-92 -50l16 304c3 10 11 21 14 31zM82 717l86 -56l-12 -198l-79 -47l-11 24zM155 780l359 -5l-91 -90h-255l-80 50zM172 450h233l65 -51l-64 -44h-248c-21 19 -45 34 -66 51z" />
    <glyph glyph-name="G" unicode="G" 
d="M139 92h261c21 -26 44 -56 65 -82c3 -3 5 -5 5 -7c0 -3 -3 -5 -10 -5h-172h-142h-71c-7 9 -14 17 -21 26c-3 3 -7 6 -7 11v1zM77 394l74 -52l-12 -233l-92 -50l16 304c3 10 11 21 14 31zM82 717l86 -56l-12 -198l-79 -47l-11 24zM155 780l359 -5l-91 -90h-255l-80 50z
M475 388l34 -38l-19 -288l-18 -26l-66 79l12 227z" />
    <glyph glyph-name="H" unicode="H" 
d="M77 394l74 -52l-12 -233l-92 -50l16 304c3 10 11 21 14 31zM82 717l86 -56l-12 -198l-79 -47l-11 24zM172 450h233l65 -51l-64 -44h-248c-21 19 -45 34 -66 51zM475 388l34 -38l-19 -288l-18 -26l-66 79l12 227zM525 762c2 -5 5 -11 5 -16c-5 -99 -11 -194 -16 -293
l-35 -37l-56 42l12 214z" />
    <glyph glyph-name="I" unicode="I" 
d="M475 388l34 -38l-19 -288l-18 -26l-66 79l12 227zM525 762c2 -5 5 -11 5 -16c-5 -99 -11 -194 -16 -293l-35 -37l-56 42l12 214z" />
    <glyph glyph-name="J" unicode="J" 
d="M139 92h261c21 -26 44 -56 65 -82c3 -3 5 -5 5 -7c0 -3 -3 -5 -10 -5h-172h-142h-71c-7 9 -14 17 -21 26c-3 3 -7 6 -7 11v1zM77 394l74 -52l-12 -233l-92 -50l16 304c3 10 11 21 14 31zM475 388l34 -38l-19 -288l-18 -26l-66 79l12 227zM525 762c2 -5 5 -11 5 -16
c-5 -99 -11 -194 -16 -293l-35 -37l-56 42l12 214z" />
    <glyph glyph-name="K" unicode="K" 
d="M77 394l74 -52l-12 -233l-92 -50l16 304c3 10 11 21 14 31zM82 717l86 -56l-12 -198l-79 -47l-11 24zM155 780l359 -5l-91 -90h-255l-80 50zM172 450h233l65 -51l-64 -44h-248c-21 19 -45 34 -66 51zM475 388l34 -38l-19 -288l-18 -26l-66 79l12 227z" />
    <glyph glyph-name="L" unicode="L" 
d="M139 92h261c21 -26 44 -56 65 -82c3 -3 5 -5 5 -7c0 -3 -3 -5 -10 -5h-172h-142h-71c-7 9 -14 17 -21 26c-3 3 -7 6 -7 11v1zM77 394l74 -52l-12 -233l-92 -50l16 304c3 10 11 21 14 31zM82 717l86 -56l-12 -198l-79 -47l-11 24z" />
    <glyph glyph-name="M" unicode="M" 
d="M77 394l74 -52l-12 -233l-92 -50l16 304c3 10 11 21 14 31zM172 450h233l65 -51l-64 -44h-248c-21 19 -45 34 -66 51zM475 388l34 -38l-19 -288l-18 -26l-66 79l12 227zM525 762c2 -5 5 -11 5 -16c-5 -99 -11 -194 -16 -293l-35 -37l-56 42l12 214z" />
    <glyph glyph-name="N" unicode="N" 
d="M77 394l74 -52l-12 -233l-92 -50l16 304c3 10 11 21 14 31zM82 717l86 -56l-12 -198l-79 -47l-11 24zM155 780l359 -5l-91 -90h-255l-80 50zM475 388l34 -38l-19 -288l-18 -26l-66 79l12 227zM525 762c2 -5 5 -11 5 -16c-5 -99 -11 -194 -16 -293l-35 -37l-56 42l12 214z
" />
    <glyph glyph-name="O" unicode="O" 
d="M139 92h261c21 -26 44 -56 65 -82c3 -3 5 -5 5 -7c0 -3 -3 -5 -10 -5h-172h-142h-71c-7 9 -14 17 -21 26c-3 3 -7 6 -7 11v1zM77 394l74 -52l-12 -233l-92 -50l16 304c3 10 11 21 14 31zM82 717l86 -56l-12 -198l-79 -47l-11 24zM155 780l359 -5l-91 -90h-255l-80 50z
M475 388l34 -38l-19 -288l-18 -26l-66 79l12 227zM525 762c2 -5 5 -11 5 -16c-5 -99 -11 -194 -16 -293l-35 -37l-56 42l12 214z" />
    <glyph glyph-name="P" unicode="P" 
d="M77 394l74 -52l-12 -233l-92 -50l16 304c3 10 11 21 14 31zM82 717l86 -56l-12 -198l-79 -47l-11 24zM155 780l359 -5l-91 -90h-255l-80 50zM172 450h233l65 -51l-64 -44h-248c-21 19 -45 34 -66 51zM525 762c2 -5 5 -11 5 -16c-5 -99 -11 -194 -16 -293l-35 -37l-56 42
l12 214z" />
    <glyph glyph-name="Q" unicode="Q" 
d="M82 717l86 -56l-12 -198l-79 -47l-11 24zM155 780l359 -5l-91 -90h-255l-80 50zM172 450h233l65 -51l-64 -44h-248c-21 19 -45 34 -66 51zM475 388l34 -38l-19 -288l-18 -26l-66 79l12 227zM525 762c2 -5 5 -11 5 -16c-5 -99 -11 -194 -16 -293l-35 -37l-56 42l12 214z
" />
    <glyph glyph-name="R" unicode="R" 
d="M77 394l74 -52l-12 -233l-92 -50l16 304c3 10 11 21 14 31zM172 450h233l65 -51l-64 -44h-248c-21 19 -45 34 -66 51z" />
    <glyph glyph-name="S" unicode="S" 
d="M138 92h262c21 -27 45 -55 66 -82c3 -3 5 -5 5 -7c0 -3 -4 -5 -11 -5h-172h-141h-72c-7 8 -14 17 -21 25c-3 4 -8 7 -8 12v2zM82 717l86 -55l-11 -199l-80 -47l-10 25zM155 779l358 -3l-90 -91h-254l-80 51zM171 450h233l66 -51l-64 -43h-248c-22 18 -44 33 -66 50z
M476 389l32 -38l-19 -289l-17 -26l-66 78l13 228z" />
    <glyph glyph-name="T" unicode="T" 
d="M139 92h261c21 -26 44 -56 65 -82c3 -3 5 -5 5 -7c0 -3 -3 -5 -10 -5h-172h-142h-71c-7 9 -14 17 -21 26c-3 3 -7 6 -7 11v1zM77 394l74 -52l-12 -233l-92 -50l16 304c3 10 11 21 14 31zM82 717l86 -56l-12 -198l-79 -47l-11 24zM172 450h233l65 -51l-64 -44h-248
c-21 19 -45 34 -66 51z" />
    <glyph glyph-name="U" unicode="U" 
d="M139 92h261c21 -26 44 -56 65 -82c3 -3 5 -5 5 -7c0 -3 -3 -5 -10 -5h-172h-142h-71c-7 9 -14 17 -21 26c-3 3 -7 6 -7 11v1zM77 394l74 -52l-12 -233l-92 -50l16 304c3 10 11 21 14 31zM82 717l86 -56l-12 -198l-79 -47l-11 24zM475 388l34 -38l-19 -288l-18 -26l-66 79
l12 227zM525 762c2 -5 5 -11 5 -16c-5 -99 -11 -194 -16 -293l-35 -37l-56 42l12 214z" />
    <glyph glyph-name="V" unicode="V" 
d="M139 92h261c21 -26 44 -56 65 -82c3 -3 5 -5 5 -7c0 -3 -3 -5 -10 -5h-172h-142h-71c-7 9 -14 17 -21 26c-3 3 -7 6 -7 11v1zM77 394l74 -52l-12 -233l-92 -50l16 304c3 10 11 21 14 31zM82 717l86 -56l-12 -198l-79 -47l-11 24zM475 388l34 -38l-19 -288l-18 -26l-66 79
l12 227zM525 762c2 -5 5 -11 5 -16c-5 -99 -11 -194 -16 -293l-35 -37l-56 42l12 214z" />
    <glyph glyph-name="W" unicode="W" 
d="M139 92h261c21 -26 44 -56 65 -82c3 -3 5 -5 5 -7c0 -3 -3 -5 -10 -5h-172h-142h-71c-7 9 -14 17 -21 26c-3 3 -7 6 -7 11v1zM77 394l74 -52l-12 -233l-92 -50l16 304c3 10 11 21 14 31zM82 717l86 -56l-12 -198l-79 -47l-11 24zM172 450h233l65 -51l-64 -44h-248
c-21 19 -45 34 -66 51zM475 388l34 -38l-19 -288l-18 -26l-66 79l12 227zM525 762c2 -5 5 -11 5 -16c-5 -99 -11 -194 -16 -293l-35 -37l-56 42l12 214z" />
    <glyph glyph-name="X" unicode="X" 
d="M139 92h261c21 -26 44 -56 65 -82c3 -3 5 -5 5 -7c0 -3 -3 -5 -10 -5h-172h-142h-71c-7 9 -14 17 -21 26c-3 3 -7 6 -7 11v1zM155 780l359 -5l-91 -90h-255l-80 50zM172 450h233l65 -51l-64 -44h-248c-21 19 -45 34 -66 51z" />
    <glyph glyph-name="Y" unicode="Y" 
d="M139 92h261c21 -26 44 -56 65 -82c3 -3 5 -5 5 -7c0 -3 -3 -5 -10 -5h-172h-142h-71c-7 9 -14 17 -21 26c-3 3 -7 6 -7 11v1zM82 717l86 -56l-12 -198l-79 -47l-11 24zM172 450h233l65 -51l-64 -44h-248c-21 19 -45 34 -66 51zM475 388l34 -38l-19 -288l-18 -26l-66 79
l12 227zM525 762c2 -5 5 -11 5 -16c-5 -99 -11 -194 -16 -293l-35 -37l-56 42l12 214z" />
    <glyph glyph-name="Z" unicode="Z" 
d="M77 394l74 -52l-12 -233l-92 -50l16 304c3 10 11 21 14 31zM155 780l359 -5l-91 -90h-255l-80 50zM172 450h233l65 -51l-64 -44h-248c-21 19 -45 34 -66 51zM525 762c2 -5 5 -11 5 -16c-5 -99 -11 -194 -16 -293l-35 -37l-56 42l12 214z" />
    <glyph glyph-name="bracketleft" unicode="[" 
d="M139 92h261c21 -26 44 -56 65 -82c3 -3 5 -5 5 -7c0 -3 -3 -5 -10 -5h-172h-142h-71c-7 9 -14 17 -21 26c-3 3 -7 6 -7 11v1zM77 394l74 -52l-12 -233l-92 -50l16 304c3 10 11 21 14 31zM82 717l86 -56l-12 -198l-79 -47l-11 24zM155 780l359 -5l-91 -90h-255l-80 50z
" />
    <glyph glyph-name="backslash" unicode="\" 
d="M82 717l86 -56l-12 -198l-79 -47l-11 24zM172 450h233l65 -51l-64 -44h-248c-21 19 -45 34 -66 51zM475 388l34 -38l-19 -288l-18 -26l-66 79l12 227z" />
    <glyph glyph-name="bracketright" unicode="]" 
d="M139 92h261c21 -26 44 -56 65 -82c3 -3 5 -5 5 -7c0 -3 -3 -5 -10 -5h-172h-142h-71c-7 9 -14 17 -21 26c-3 3 -7 6 -7 11v1zM155 780l359 -5l-91 -90h-255l-80 50zM475 388l34 -38l-19 -288l-18 -26l-66 79l12 227zM525 762c2 -5 5 -11 5 -16c-5 -99 -11 -194 -16 -293
l-35 -37l-56 42l12 214z" />
    <glyph glyph-name="asciicircum" unicode="^" 
d="M82 717l86 -56l-12 -198l-79 -47l-11 24zM155 780l359 -5l-91 -90h-255l-80 50zM525 762c2 -5 5 -11 5 -16c-5 -99 -11 -194 -16 -293l-35 -37l-56 42l12 214z" />
    <glyph glyph-name="underscore" unicode="_" 
d="M172 450h233l65 -51l-64 -44h-248c-21 19 -45 34 -66 51z" />
    <glyph glyph-name="grave" unicode="`" 
d="M525 762c2 -5 5 -11 5 -16c-5 -99 -11 -194 -16 -293l-35 -37l-56 42l12 214z" />
    <glyph glyph-name="a" unicode="a" 
d="M139 92h261c21 -26 44 -56 65 -82c3 -3 5 -5 5 -7c0 -3 -3 -5 -10 -5h-172h-142h-71c-7 9 -14 17 -21 26c-3 3 -7 6 -7 11v1zM77 394l74 -52l-12 -233l-92 -50l16 304c3 10 11 21 14 31zM155 780l359 -5l-91 -90h-255l-80 50zM172 450h233l65 -51l-64 -44h-248
c-21 19 -45 34 -66 51zM475 388l34 -38l-19 -288l-18 -26l-66 79l12 227zM525 762c2 -5 5 -11 5 -16c-5 -99 -11 -194 -16 -293l-35 -37l-56 42l12 214z" />
    <glyph glyph-name="b" unicode="b" 
d="M139 92h261c21 -26 44 -56 65 -82c3 -3 5 -5 5 -7c0 -3 -3 -5 -10 -5h-172h-142h-71c-7 9 -14 17 -21 26c-3 3 -7 6 -7 11v1zM77 394l74 -52l-12 -233l-92 -50l16 304c3 10 11 21 14 31zM82 717l86 -56l-12 -198l-79 -47l-11 24zM172 450h233l65 -51l-64 -44h-248
c-21 19 -45 34 -66 51zM475 388l34 -38l-19 -288l-18 -26l-66 79l12 227z" />
    <glyph glyph-name="c" unicode="c" 
d="M139 92h261c21 -26 44 -56 65 -82c3 -3 5 -5 5 -7c0 -3 -3 -5 -10 -5h-172h-142h-71c-7 9 -14 17 -21 26c-3 3 -7 6 -7 11v1zM77 394l74 -52l-12 -233l-92 -50l16 304c3 10 11 21 14 31zM172 450h233l65 -51l-64 -44h-248c-21 19 -45 34 -66 51z" />
    <glyph glyph-name="d" unicode="d" 
d="M139 92h261c21 -26 44 -56 65 -82c3 -3 5 -5 5 -7c0 -3 -3 -5 -10 -5h-172h-142h-71c-7 9 -14 17 -21 26c-3 3 -7 6 -7 11v1zM77 394l74 -52l-12 -233l-92 -50l16 304c3 10 11 21 14 31zM172 450h233l65 -51l-64 -44h-248c-21 19 -45 34 -66 51zM475 388l34 -38l-19 -288
l-18 -26l-66 79l12 227zM525 762c2 -5 5 -11 5 -16c-5 -99 -11 -194 -16 -293l-35 -37l-56 42l12 214z" />
    <glyph glyph-name="e" unicode="e" 
d="M139 92h261c21 -26 44 -56 65 -82c3 -3 5 -5 5 -7c0 -3 -3 -5 -10 -5h-172h-142h-71c-7 9 -14 17 -21 26c-3 3 -7 6 -7 11v1zM77 394l74 -52l-12 -233l-92 -50l16 304c3 10 11 21 14 31zM82 717l86 -56l-12 -198l-79 -47l-11 24zM155 780l359 -5l-91 -90h-255l-80 50z
M172 450h233l65 -51l-64 -44h-248c-21 19 -45 34 -66 51zM525 762c2 -5 5 -11 5 -16c-5 -99 -11 -194 -16 -293l-35 -37l-56 42l12 214z" />
    <glyph glyph-name="f" unicode="f" 
d="M77 394l74 -52l-12 -233l-92 -50l16 304c3 10 11 21 14 31zM82 717l86 -56l-12 -198l-79 -47l-11 24zM155 780l359 -5l-91 -90h-255l-80 50zM172 450h233l65 -51l-64 -44h-248c-21 19 -45 34 -66 51z" />
    <glyph glyph-name="g" unicode="g" 
d="M139 92h261c21 -26 44 -56 65 -82c3 -3 5 -5 5 -7c0 -3 -3 -5 -10 -5h-172h-142h-71c-7 9 -14 17 -21 26c-3 3 -7 6 -7 11v1zM82 717l86 -56l-12 -198l-79 -47l-11 24zM155 780l359 -5l-91 -90h-255l-80 50zM172 450h233l65 -51l-64 -44h-248c-21 19 -45 34 -66 51z
M475 388l34 -38l-19 -288l-18 -26l-66 79l12 227zM525 762c2 -5 5 -11 5 -16c-5 -99 -11 -194 -16 -293l-35 -37l-56 42l12 214z" />
    <glyph glyph-name="h" unicode="h" 
d="M77 394l74 -52l-12 -233l-92 -50l16 304c3 10 11 21 14 31zM82 717l86 -56l-12 -198l-79 -47l-11 24zM172 450h233l65 -51l-64 -44h-248c-21 19 -45 34 -66 51zM475 388l34 -38l-19 -288l-18 -26l-66 79l12 227z" />
    <glyph glyph-name="i" unicode="i" 
d="M475 388l34 -38l-19 -288l-18 -26l-66 79l12 227z" />
    <glyph glyph-name="j" unicode="j" 
d="M139 92h261c21 -26 44 -56 65 -82c3 -3 5 -5 5 -7c0 -3 -3 -5 -10 -5h-172h-142h-71c-7 9 -14 17 -21 26c-3 3 -7 6 -7 11v1zM77 394l74 -52l-12 -233l-92 -50l16 304c3 10 11 21 14 31zM475 388l34 -38l-19 -288l-18 -26l-66 79l12 227zM525 762c2 -5 5 -11 5 -16
c-5 -99 -11 -194 -16 -293l-35 -37l-56 42l12 214z" />
    <glyph glyph-name="k" unicode="k" 
d="M77 394l74 -52l-12 -233l-92 -50l16 304c3 10 11 21 14 31zM82 717l86 -56l-12 -198l-79 -47l-11 24zM155 780l359 -5l-91 -90h-255l-80 50zM172 450h233l65 -51l-64 -44h-248c-21 19 -45 34 -66 51zM475 388l34 -38l-19 -288l-18 -26l-66 79l12 227z" />
    <glyph glyph-name="l" unicode="l" 
d="M139 92h261c21 -26 44 -56 65 -82c3 -3 5 -5 5 -7c0 -3 -3 -5 -10 -5h-172h-142h-71c-7 9 -14 17 -21 26c-3 3 -7 6 -7 11v1zM77 394l74 -52l-12 -233l-92 -50l16 304c3 10 11 21 14 31zM82 717l86 -56l-12 -198l-79 -47l-11 24z" />
    <glyph glyph-name="m" unicode="m" 
d="M77 394l74 -52l-12 -233l-92 -50l16 304c3 10 11 21 14 31zM82 717l86 -56l-12 -198l-79 -47l-11 24zM172 450h233l65 -51l-64 -44h-248c-21 19 -45 34 -66 51zM525 762c2 -5 5 -11 5 -16c-5 -99 -11 -194 -16 -293l-35 -37l-56 42l12 214z" />
    <glyph glyph-name="n" unicode="n" 
d="M77 394l74 -52l-12 -233l-92 -50l16 304c3 10 11 21 14 31zM172 450h233l65 -51l-64 -44h-248c-21 19 -45 34 -66 51zM475 388l34 -38l-19 -288l-18 -26l-66 79l12 227z" />
    <glyph glyph-name="o" unicode="o" 
d="M139 92h261c21 -26 44 -56 65 -82c3 -3 5 -5 5 -7c0 -3 -3 -5 -10 -5h-172h-142h-71c-7 9 -14 17 -21 26c-3 3 -7 6 -7 11v1zM77 394l74 -52l-12 -233l-92 -50l16 304c3 10 11 21 14 31zM172 450h233l65 -51l-64 -44h-248c-21 19 -45 34 -66 51zM475 388l34 -38l-19 -288
l-18 -26l-66 79l12 227z" />
    <glyph glyph-name="p" unicode="p" 
d="M77 394l74 -52l-12 -233l-92 -50l16 304c3 10 11 21 14 31zM82 717l86 -56l-12 -198l-79 -47l-11 24zM155 780l359 -5l-91 -90h-255l-80 50zM172 450h233l65 -51l-64 -44h-248c-21 19 -45 34 -66 51zM525 762c2 -5 5 -11 5 -16c-5 -99 -11 -194 -16 -293l-35 -37l-56 42
l12 214z" />
    <glyph glyph-name="q" unicode="q" 
d="M82 717l86 -56l-12 -198l-79 -47l-11 24zM155 780l359 -5l-91 -90h-255l-80 50zM172 450h233l65 -51l-64 -44h-248c-21 19 -45 34 -66 51zM475 388l34 -38l-19 -288l-18 -26l-66 79l12 227zM525 762c2 -5 5 -11 5 -16c-5 -99 -11 -194 -16 -293l-35 -37l-56 42l12 214z
" />
    <glyph glyph-name="r" unicode="r" 
d="M77 394l74 -52l-12 -233l-92 -50l16 304c3 10 11 21 14 31zM172 450h233l65 -51l-64 -44h-248c-21 19 -45 34 -66 51z" />
    <glyph glyph-name="s" unicode="s" 
d="M138 92h262c21 -27 45 -55 66 -82c3 -3 5 -5 5 -7c0 -3 -4 -5 -11 -5h-172h-141h-72c-7 8 -14 17 -21 25c-3 4 -8 7 -8 12v2zM82 717l86 -55l-11 -199l-80 -47l-10 25zM155 779l358 -3l-90 -91h-254l-80 51zM171 450h233l66 -51l-64 -43h-248c-22 18 -44 33 -66 50z
M476 389l32 -38l-19 -289l-17 -26l-66 78l13 228z" />
    <glyph glyph-name="t" unicode="t" 
d="M139 92h261c21 -26 44 -56 65 -82c3 -3 5 -5 5 -7c0 -3 -3 -5 -10 -5h-172h-142h-71c-7 9 -14 17 -21 26c-3 3 -7 6 -7 11v1zM77 394l74 -52l-12 -233l-92 -50l16 304c3 10 11 21 14 31zM82 717l86 -56l-12 -198l-79 -47l-11 24zM172 450h233l65 -51l-64 -44h-248
c-21 19 -45 34 -66 51z" />
    <glyph glyph-name="u" unicode="u" 
d="M139 92h261c21 -26 44 -56 65 -82c3 -3 5 -5 5 -7c0 -3 -3 -5 -10 -5h-172h-142h-71c-7 9 -14 17 -21 26c-3 3 -7 6 -7 11v1zM77 394l74 -52l-12 -233l-92 -50l16 304c3 10 11 21 14 31zM475 388l34 -38l-19 -288l-18 -26l-66 79l12 227z" />
    <glyph glyph-name="v" unicode="v" 
d="M139 92h261c21 -26 44 -56 65 -82c3 -3 5 -5 5 -7c0 -3 -3 -5 -10 -5h-172h-142h-71c-7 9 -14 17 -21 26c-3 3 -7 6 -7 11v1zM77 394l74 -52l-12 -233l-92 -50l16 304c3 10 11 21 14 31zM82 717l86 -56l-12 -198l-79 -47l-11 24zM475 388l34 -38l-19 -288l-18 -26l-66 79
l12 227zM525 762c2 -5 5 -11 5 -16c-5 -99 -11 -194 -16 -293l-35 -37l-56 42l12 214z" />
    <glyph glyph-name="w" unicode="w" 
d="M139 92h261c21 -26 44 -56 65 -82c3 -3 5 -5 5 -7c0 -3 -3 -5 -10 -5h-172h-142h-71c-7 9 -14 17 -21 26c-3 3 -7 6 -7 11v1zM77 394l74 -52l-12 -233l-92 -50l16 304c3 10 11 21 14 31zM82 717l86 -56l-12 -198l-79 -47l-11 24zM172 450h233l65 -51l-64 -44h-248
c-21 19 -45 34 -66 51zM475 388l34 -38l-19 -288l-18 -26l-66 79l12 227zM525 762c2 -5 5 -11 5 -16c-5 -99 -11 -194 -16 -293l-35 -37l-56 42l12 214z" />
    <glyph glyph-name="x" unicode="x" 
d="M77 394l74 -52l-12 -233l-92 -50l16 304c3 10 11 21 14 31zM82 717l86 -56l-12 -198l-79 -47l-11 24zM172 450h233l65 -51l-64 -44h-248c-21 19 -45 34 -66 51zM475 388l34 -38l-19 -288l-18 -26l-66 79l12 227zM525 762c2 -5 5 -11 5 -16c-5 -99 -11 -194 -16 -293
l-35 -37l-56 42l12 214z" />
    <glyph glyph-name="y" unicode="y" 
d="M139 92h261c21 -26 44 -56 65 -82c3 -3 5 -5 5 -7c0 -3 -3 -5 -10 -5h-172h-142h-71c-7 9 -14 17 -21 26c-3 3 -7 6 -7 11v1zM82 717l86 -56l-12 -198l-79 -47l-11 24zM172 450h233l65 -51l-64 -44h-248c-21 19 -45 34 -66 51zM475 388l34 -38l-19 -288l-18 -26l-66 79
l12 227zM525 762c2 -5 5 -11 5 -16c-5 -99 -11 -194 -16 -293l-35 -37l-56 42l12 214z" />
    <glyph glyph-name="z" unicode="z" 
d="M77 394l74 -52l-12 -233l-92 -50l16 304c3 10 11 21 14 31zM172 450h233l65 -51l-64 -44h-248c-21 19 -45 34 -66 51zM525 762c2 -5 5 -11 5 -16c-5 -99 -11 -194 -16 -293l-35 -37l-56 42l12 214z" />
    <glyph glyph-name="braceleft" unicode="{" 
 />
    <glyph glyph-name="bar" unicode="|" 
d="M475 388l34 -38l-19 -288l-18 -26l-66 79l12 227zM525 762c2 -5 5 -11 5 -16c-5 -99 -11 -194 -16 -293l-35 -37l-56 42l12 214z" />
    <glyph glyph-name="braceright" unicode="}" 
 />
    <glyph glyph-name="asciitilde" unicode="~" 
d="M139 92h261c21 -26 44 -56 65 -82c3 -3 5 -5 5 -7c0 -3 -3 -5 -10 -5h-172h-142h-71c-7 9 -14 17 -21 26c-3 3 -7 6 -7 11v1zM77 394l74 -52l-12 -233l-92 -50l16 304c3 10 11 21 14 31zM155 780l359 -5l-91 -90h-255l-80 50zM525 762c2 -5 5 -11 5 -16
c-5 -99 -11 -194 -16 -293l-35 -37l-56 42l12 214z" />
    <glyph glyph-name="uni007F" 
 />
    <glyph glyph-name="uni0080" 
 />
    <glyph glyph-name="uni0081" 
 />
    <glyph glyph-name="uni0082" 
 />
    <glyph glyph-name="uni0083" 
 />
    <glyph glyph-name="uni0084" 
 />
    <glyph glyph-name="uni0085" unicode="&#x85;" 
 />
    <glyph glyph-name="uni0086" 
 />
    <glyph glyph-name="uni0087" 
 />
    <glyph glyph-name="uni0088" 
 />
    <glyph glyph-name="uni0089" 
 />
    <glyph glyph-name="uni008A" 
 />
    <glyph glyph-name="uni008B" 
 />
    <glyph glyph-name="uni008C" 
 />
    <glyph glyph-name="uni008D" 
 />
    <glyph glyph-name="uni008E" 
 />
    <glyph glyph-name="uni008F" 
 />
    <glyph glyph-name="uni0090" 
 />
    <glyph glyph-name="uni0091" 
 />
    <glyph glyph-name="uni0092" 
 />
    <glyph glyph-name="uni0093" 
 />
    <glyph glyph-name="uni0094" 
 />
    <glyph glyph-name="uni0095" 
 />
    <glyph glyph-name="uni0096" 
 />
    <glyph glyph-name="uni0097" 
 />
    <glyph glyph-name="uni0098" 
 />
    <glyph glyph-name="uni0099" 
 />
    <glyph glyph-name="uni009A" 
 />
    <glyph glyph-name="uni009B" 
 />
    <glyph glyph-name="uni009C" 
 />
    <glyph glyph-name="uni009D" 
 />
    <glyph glyph-name="uni009E" 
 />
    <glyph glyph-name="uni009F" 
 />
    <glyph glyph-name="uni00A0" unicode="&#xa0;" 
 />
    <glyph glyph-name="exclamdown" unicode="&#xa1;" 
 />
    <glyph glyph-name="cent" unicode="&#xa2;" 
 />
    <glyph glyph-name="sterling" unicode="&#xa3;" 
 />
    <glyph glyph-name="currency" unicode="&#xa4;" 
 />
    <glyph glyph-name="yen" unicode="&#xa5;" 
 />
    <glyph glyph-name="brokenbar" unicode="&#xa6;" 
 />
    <glyph glyph-name="section" unicode="&#xa7;" 
 />
    <glyph glyph-name="dieresis" unicode="&#xa8;" 
 />
    <glyph glyph-name="copyright" unicode="&#xa9;" 
 />
    <glyph glyph-name="ordfeminine" unicode="&#xaa;" 
 />
    <glyph glyph-name="guillemotleft" unicode="&#xab;" 
 />
    <glyph glyph-name="logicalnot" unicode="&#xac;" 
 />
    <glyph glyph-name="uni00AD" unicode="&#xad;" 
 />
    <glyph glyph-name="registered" unicode="&#xae;" 
 />
    <glyph glyph-name="macron" unicode="&#xaf;" 
 />
    <glyph glyph-name="degree" unicode="&#xb0;" 
d="M172 450h233l65 -51l-64 -44h-248c-21 19 -45 34 -66 51zM82 717l86 -56l-12 -198l-79 -47l-11 24zM155 780l359 -5l-91 -90h-255l-80 50zM525 762c2 -5 5 -11 5 -16c-5 -99 -11 -194 -16 -293l-35 -37l-56 42l12 214z" />
    <glyph glyph-name="plusminus" unicode="&#xb1;" 
 />
    <glyph glyph-name="uni00B2" unicode="&#xb2;" 
 />
    <glyph glyph-name="uni00B3" unicode="&#xb3;" 
 />
    <glyph glyph-name="acute" unicode="&#xb4;" 
 />
    <glyph glyph-name="uni00B5" unicode="&#xb5;" 
d="M77 394l74 -52l-12 -233l-92 -50l16 304c3 10 11 21 14 31zM82 717l86 -56l-12 -198l-79 -47l-11 24zM172 450h233l65 -51l-64 -44h-248c-21 19 -45 34 -66 51zM525 762c2 -5 5 -11 5 -16c-5 -99 -11 -194 -16 -293l-35 -37l-56 42l12 214z" />
    <glyph glyph-name="paragraph" unicode="&#xb6;" 
 />
    <glyph glyph-name="periodcentered" unicode="&#xb7;" 
 />
    <glyph glyph-name="cedilla" unicode="&#xb8;" 
 />
    <glyph glyph-name="uni00B9" unicode="&#xb9;" 
 />
    <glyph glyph-name="ordmasculine" unicode="&#xba;" 
 />
    <glyph glyph-name="guillemotright" unicode="&#xbb;" 
 />
    <glyph glyph-name="onequarter" unicode="&#xbc;" 
 />
    <glyph glyph-name="onehalf" unicode="&#xbd;" 
 />
    <glyph glyph-name="threequarters" unicode="&#xbe;" 
 />
    <glyph glyph-name="questiondown" unicode="&#xbf;" 
 />
    <glyph glyph-name="Agrave" unicode="&#xc0;" 
 />
    <glyph glyph-name="Aacute" unicode="&#xc1;" 
 />
    <glyph glyph-name="Acircumflex" unicode="&#xc2;" 
 />
    <glyph glyph-name="Atilde" unicode="&#xc3;" 
 />
    <glyph glyph-name="Adieresis" unicode="&#xc4;" 
 />
    <glyph glyph-name="Aring" unicode="&#xc5;" 
 />
    <glyph glyph-name="AE" unicode="&#xc6;" 
 />
    <glyph glyph-name="Ccedilla" unicode="&#xc7;" 
 />
    <glyph glyph-name="Egrave" unicode="&#xc8;" 
 />
    <glyph glyph-name="Eacute" unicode="&#xc9;" 
 />
    <glyph glyph-name="Ecircumflex" unicode="&#xca;" 
 />
    <glyph glyph-name="Edieresis" unicode="&#xcb;" 
 />
    <glyph glyph-name="Igrave" unicode="&#xcc;" 
 />
    <glyph glyph-name="Iacute" unicode="&#xcd;" 
 />
    <glyph glyph-name="Icircumflex" unicode="&#xce;" 
 />
    <glyph glyph-name="Idieresis" unicode="&#xcf;" 
 />
    <glyph glyph-name="Eth" unicode="&#xd0;" 
 />
    <glyph glyph-name="Ntilde" unicode="&#xd1;" 
 />
    <glyph glyph-name="Ograve" unicode="&#xd2;" 
 />
    <glyph glyph-name="Oacute" unicode="&#xd3;" 
 />
    <glyph glyph-name="Ocircumflex" unicode="&#xd4;" 
 />
    <glyph glyph-name="Otilde" unicode="&#xd5;" 
 />
    <glyph glyph-name="Odieresis" unicode="&#xd6;" 
 />
    <glyph glyph-name="multiply" unicode="&#xd7;" 
 />
    <glyph glyph-name="Oslash" unicode="&#xd8;" 
 />
    <glyph glyph-name="Ugrave" unicode="&#xd9;" 
 />
    <glyph glyph-name="Uacute" unicode="&#xda;" 
 />
    <glyph glyph-name="Ucircumflex" unicode="&#xdb;" 
 />
    <glyph glyph-name="Udieresis" unicode="&#xdc;" 
 />
    <glyph glyph-name="Yacute" unicode="&#xdd;" 
 />
    <glyph glyph-name="Thorn" unicode="&#xde;" 
 />
    <glyph glyph-name="germandbls" unicode="&#xdf;" 
 />
    <glyph glyph-name="agrave" unicode="&#xe0;" 
d="M139 92h261c21 -26 44 -56 65 -82c3 -3 5 -5 5 -7c0 -3 -3 -5 -10 -5h-172h-142h-71c-7 9 -14 17 -21 26c-3 3 -7 6 -7 11v1zM77 394l74 -52l-12 -233l-92 -50l16 304c3 10 11 21 14 31zM155 780l359 -5l-91 -90h-255l-80 50zM172 450h233l65 -51l-64 -44h-248
c-21 19 -45 34 -66 51zM475 388l34 -38l-19 -288l-18 -26l-66 79l12 227zM525 762c2 -5 5 -11 5 -16c-5 -99 -11 -194 -16 -293l-35 -37l-56 42l12 214z" />
    <glyph glyph-name="aacute" unicode="&#xe1;" 
d="M139 92h261c21 -26 44 -56 65 -82c3 -3 5 -5 5 -7c0 -3 -3 -5 -10 -5h-172h-142h-71c-7 9 -14 17 -21 26c-3 3 -7 6 -7 11v1zM77 394l74 -52l-12 -233l-92 -50l16 304c3 10 11 21 14 31zM155 780l359 -5l-91 -90h-255l-80 50zM172 450h233l65 -51l-64 -44h-248
c-21 19 -45 34 -66 51zM475 388l34 -38l-19 -288l-18 -26l-66 79l12 227zM525 762c2 -5 5 -11 5 -16c-5 -99 -11 -194 -16 -293l-35 -37l-56 42l12 214z" />
    <glyph glyph-name="acircumflex" unicode="&#xe2;" 
 />
    <glyph glyph-name="atilde" unicode="&#xe3;" 
 />
    <glyph glyph-name="adieresis" unicode="&#xe4;" 
 />
    <glyph glyph-name="aring" unicode="&#xe5;" 
 />
    <glyph glyph-name="ae" unicode="&#xe6;" 
 />
    <glyph glyph-name="ccedilla" unicode="&#xe7;" 
 />
    <glyph glyph-name="egrave" unicode="&#xe8;" 
 />
    <glyph glyph-name="eacute" unicode="&#xe9;" 
d="M139 92h261c21 -26 44 -56 65 -82c3 -3 5 -5 5 -7c0 -3 -3 -5 -10 -5h-172h-142h-71c-7 9 -14 17 -21 26c-3 3 -7 6 -7 11v1zM77 394l74 -52l-12 -233l-92 -50l16 304c3 10 11 21 14 31zM82 717l86 -56l-12 -198l-79 -47l-11 24zM155 780l359 -5l-91 -90h-255l-80 50z
M172 450h233l65 -51l-64 -44h-248c-21 19 -45 34 -66 51zM525 762c2 -5 5 -11 5 -16c-5 -99 -11 -194 -16 -293l-35 -37l-56 42l12 214z" />
    <glyph glyph-name="ecircumflex" unicode="&#xea;" 
 />
    <glyph glyph-name="edieresis" unicode="&#xeb;" 
 />
    <glyph glyph-name="igrave" unicode="&#xec;" 
 />
    <glyph glyph-name="iacute" unicode="&#xed;" 
 />
    <glyph glyph-name="icircumflex" unicode="&#xee;" 
 />
    <glyph glyph-name="idieresis" unicode="&#xef;" 
 />
    <glyph glyph-name="eth" unicode="&#xf0;" 
 />
    <glyph glyph-name="ntilde" unicode="&#xf1;" 
 />
    <glyph glyph-name="ograve" unicode="&#xf2;" 
 />
    <glyph glyph-name="oacute" unicode="&#xf3;" 
 />
    <glyph glyph-name="ocircumflex" unicode="&#xf4;" 
 />
    <glyph glyph-name="otilde" unicode="&#xf5;" 
 />
    <glyph glyph-name="odieresis" unicode="&#xf6;" 
 />
    <glyph glyph-name="divide" unicode="&#xf7;" 
 />
    <glyph glyph-name="oslash" unicode="&#xf8;" 
 />
    <glyph glyph-name="ugrave" unicode="&#xf9;" 
 />
    <glyph glyph-name="uacute" unicode="&#xfa;" 
 />
    <glyph glyph-name="ucircumflex" unicode="&#xfb;" 
 />
    <glyph glyph-name="udieresis" unicode="&#xfc;" 
 />
    <glyph glyph-name="yacute" unicode="&#xfd;" 
 />
    <glyph glyph-name="thorn" unicode="&#xfe;" 
 />
    <glyph glyph-name="ydieresis" unicode="&#xff;" 
 />
    </font>
</defs>
</svg>
